<mxfile host="app.diagrams.net" modified="2023-04-17T23:45:08.244Z" agent="Mozilla/5.0 (Macintosh; Intel Mac OS X 10_15_7) AppleWebKit/537.36 (KHTML, like Gecko) Chrome/112.0.0.0 Safari/537.36" version="21.1.8" etag="wBHBsWtDszrPJBKiU_XX" type="device">
  <diagram id="b8C5L8vpwjSkupIhrCtT" name="Page-1">
    <mxGraphModel dx="1434" dy="796" grid="1" gridSize="10" guides="1" tooltips="1" connect="1" arrows="1" fold="1" page="1" pageScale="1" pageWidth="827" pageHeight="1169" math="0" shadow="0">
      <root>
        <mxCell id="0" />
        <mxCell id="1" parent="0" />
        <mxCell id="vawfzXd1jvmL-N3P_HfQ-47" value="" style="group" vertex="1" connectable="0" parent="1">
          <mxGeometry y="90" width="810" height="550" as="geometry" />
        </mxCell>
        <mxCell id="vawfzXd1jvmL-N3P_HfQ-41" value="" style="rounded=0;whiteSpace=wrap;html=1;fillColor=#d5e8d4;strokeColor=#82b366;" vertex="1" parent="vawfzXd1jvmL-N3P_HfQ-47">
          <mxGeometry x="619.4117647058824" y="43.13725490196078" width="190.58823529411765" height="506.86274509803917" as="geometry" />
        </mxCell>
        <mxCell id="vawfzXd1jvmL-N3P_HfQ-33" value="" style="rounded=0;whiteSpace=wrap;html=1;fillColor=#e1d5e7;strokeColor=#9673a6;" vertex="1" parent="vawfzXd1jvmL-N3P_HfQ-47">
          <mxGeometry x="381.1764705882353" y="43.13725490196078" width="226.32352941176472" height="506.86274509803917" as="geometry" />
        </mxCell>
        <mxCell id="vawfzXd1jvmL-N3P_HfQ-27" value="" style="rounded=0;whiteSpace=wrap;html=1;fillColor=#f8cecc;strokeColor=#b85450;" vertex="1" parent="vawfzXd1jvmL-N3P_HfQ-47">
          <mxGeometry width="369.264705882353" height="550" as="geometry" />
        </mxCell>
        <mxCell id="vawfzXd1jvmL-N3P_HfQ-1" value="" style="shape=datastore;whiteSpace=wrap;html=1;fillColor=#dae8fc;strokeColor=#6c8ebf;strokeWidth=2;" vertex="1" parent="vawfzXd1jvmL-N3P_HfQ-47">
          <mxGeometry x="59.55882352941177" y="75.49019607843137" width="71.47058823529413" height="64.70588235294117" as="geometry" />
        </mxCell>
        <mxCell id="vawfzXd1jvmL-N3P_HfQ-4" value="Download data&lt;br&gt;(raw reads)" style="text;html=1;strokeColor=none;fillColor=none;align=center;verticalAlign=middle;whiteSpace=wrap;rounded=0;" vertex="1" parent="vawfzXd1jvmL-N3P_HfQ-47">
          <mxGeometry x="41.69117647058824" y="32.35294117647059" width="107.20588235294119" height="32.35294117647059" as="geometry" />
        </mxCell>
        <mxCell id="vawfzXd1jvmL-N3P_HfQ-12" value="&lt;b&gt;&lt;font style=&quot;font-size: 16px;&quot;&gt;seqkit&lt;/font&gt;&lt;/b&gt;&lt;br&gt;(raw reads summary)" style="whiteSpace=wrap;html=1;" vertex="1" parent="vawfzXd1jvmL-N3P_HfQ-47">
          <mxGeometry x="23.823529411764707" y="204.9019607843137" width="142.94117647058826" height="64.70588235294117" as="geometry" />
        </mxCell>
        <mxCell id="vawfzXd1jvmL-N3P_HfQ-13" value="" style="edgeStyle=orthogonalEdgeStyle;rounded=0;orthogonalLoop=1;jettySize=auto;html=1;" edge="1" parent="vawfzXd1jvmL-N3P_HfQ-47" source="vawfzXd1jvmL-N3P_HfQ-1" target="vawfzXd1jvmL-N3P_HfQ-12">
          <mxGeometry relative="1" as="geometry" />
        </mxCell>
        <mxCell id="vawfzXd1jvmL-N3P_HfQ-14" value="&lt;b style=&quot;border-color: var(--border-color);&quot;&gt;&lt;font style=&quot;border-color: var(--border-color); font-size: 16px;&quot;&gt;fastqc&lt;/font&gt;&lt;/b&gt;&lt;br style=&quot;border-color: var(--border-color);&quot;&gt;(in-depth QC statistics)" style="whiteSpace=wrap;html=1;" vertex="1" parent="vawfzXd1jvmL-N3P_HfQ-47">
          <mxGeometry x="23.823529411764707" y="323.52941176470586" width="142.94117647058826" height="64.70588235294117" as="geometry" />
        </mxCell>
        <mxCell id="vawfzXd1jvmL-N3P_HfQ-15" value="" style="edgeStyle=orthogonalEdgeStyle;rounded=0;orthogonalLoop=1;jettySize=auto;html=1;" edge="1" parent="vawfzXd1jvmL-N3P_HfQ-47" source="vawfzXd1jvmL-N3P_HfQ-12" target="vawfzXd1jvmL-N3P_HfQ-14">
          <mxGeometry relative="1" as="geometry" />
        </mxCell>
        <mxCell id="vawfzXd1jvmL-N3P_HfQ-16" value="&lt;b style=&quot;border-color: var(--border-color);&quot;&gt;&lt;font style=&quot;border-color: var(--border-color); font-size: 16px;&quot;&gt;BBtools&lt;/font&gt;&lt;/b&gt;&lt;br style=&quot;border-color: var(--border-color);&quot;&gt;(trim raw reads)" style="whiteSpace=wrap;html=1;" vertex="1" parent="vawfzXd1jvmL-N3P_HfQ-47">
          <mxGeometry x="190.58823529411765" y="75.49019607843137" width="142.94117647058826" height="64.70588235294117" as="geometry" />
        </mxCell>
        <mxCell id="vawfzXd1jvmL-N3P_HfQ-17" value="" style="edgeStyle=orthogonalEdgeStyle;rounded=0;orthogonalLoop=1;jettySize=auto;html=1;" edge="1" parent="vawfzXd1jvmL-N3P_HfQ-47" source="vawfzXd1jvmL-N3P_HfQ-1" target="vawfzXd1jvmL-N3P_HfQ-16">
          <mxGeometry relative="1" as="geometry" />
        </mxCell>
        <mxCell id="vawfzXd1jvmL-N3P_HfQ-18" value="trimmed reads" style="shape=parallelogram;perimeter=parallelogramPerimeter;whiteSpace=wrap;html=1;fixedSize=1;fillColor=#dae8fc;strokeColor=#6c8ebf;" vertex="1" parent="vawfzXd1jvmL-N3P_HfQ-47">
          <mxGeometry x="190.58823529411765" y="172.54901960784312" width="142.94117647058826" height="32.35294117647059" as="geometry" />
        </mxCell>
        <mxCell id="vawfzXd1jvmL-N3P_HfQ-19" value="" style="edgeStyle=orthogonalEdgeStyle;rounded=0;orthogonalLoop=1;jettySize=auto;html=1;" edge="1" parent="vawfzXd1jvmL-N3P_HfQ-47" source="vawfzXd1jvmL-N3P_HfQ-16" target="vawfzXd1jvmL-N3P_HfQ-18">
          <mxGeometry relative="1" as="geometry" />
        </mxCell>
        <mxCell id="vawfzXd1jvmL-N3P_HfQ-20" value="&lt;b style=&quot;border-color: var(--border-color);&quot;&gt;&lt;font style=&quot;border-color: var(--border-color); font-size: 16px;&quot;&gt;fastqc&lt;/font&gt;&lt;/b&gt;&lt;br style=&quot;border-color: var(--border-color);&quot;&gt;(in-depth QC statistics)" style="whiteSpace=wrap;html=1;" vertex="1" parent="vawfzXd1jvmL-N3P_HfQ-47">
          <mxGeometry x="190.58823529411765" y="323.52941176470586" width="142.94117647058826" height="64.70588235294117" as="geometry" />
        </mxCell>
        <mxCell id="vawfzXd1jvmL-N3P_HfQ-21" value="" style="edgeStyle=orthogonalEdgeStyle;rounded=0;orthogonalLoop=1;jettySize=auto;html=1;" edge="1" parent="vawfzXd1jvmL-N3P_HfQ-47" source="vawfzXd1jvmL-N3P_HfQ-18" target="vawfzXd1jvmL-N3P_HfQ-20">
          <mxGeometry relative="1" as="geometry" />
        </mxCell>
        <mxCell id="vawfzXd1jvmL-N3P_HfQ-22" value="" style="strokeWidth=1;html=1;shape=mxgraph.flowchart.annotation_2;align=left;labelPosition=right;pointerEvents=1;rotation=-90;" vertex="1" parent="vawfzXd1jvmL-N3P_HfQ-47">
          <mxGeometry x="142.94117647058826" y="354.80392156862746" width="71.47058823529413" height="150.98039215686273" as="geometry" />
        </mxCell>
        <mxCell id="vawfzXd1jvmL-N3P_HfQ-23" value="&lt;b style=&quot;border-color: var(--border-color); color: rgb(0, 0, 0); font-family: Helvetica; font-size: 12px; font-style: normal; font-variant-ligatures: normal; font-variant-caps: normal; letter-spacing: normal; orphans: 2; text-indent: 0px; text-transform: none; widows: 2; word-spacing: 0px; -webkit-text-stroke-width: 0px; background-color: rgb(251, 251, 251); text-decoration-thickness: initial; text-decoration-style: initial; text-decoration-color: initial;&quot;&gt;&lt;font style=&quot;border-color: var(--border-color); font-size: 16px;&quot;&gt;multiqc&lt;/font&gt;&lt;/b&gt;&lt;br style=&quot;border-color: var(--border-color); color: rgb(0, 0, 0); font-family: Helvetica; font-size: 12px; font-style: normal; font-variant-ligatures: normal; font-variant-caps: normal; font-weight: 400; letter-spacing: normal; orphans: 2; text-indent: 0px; text-transform: none; widows: 2; word-spacing: 0px; -webkit-text-stroke-width: 0px; background-color: rgb(251, 251, 251); text-decoration-thickness: initial; text-decoration-style: initial; text-decoration-color: initial;&quot;&gt;&lt;span style=&quot;color: rgb(0, 0, 0); font-family: Helvetica; font-size: 12px; font-style: normal; font-variant-ligatures: normal; font-variant-caps: normal; font-weight: 400; letter-spacing: normal; orphans: 2; text-indent: 0px; text-transform: none; widows: 2; word-spacing: 0px; -webkit-text-stroke-width: 0px; background-color: rgb(251, 251, 251); text-decoration-thickness: initial; text-decoration-style: initial; text-decoration-color: initial; float: none; display: inline !important;&quot;&gt;(create summary of QC)&lt;/span&gt;" style="whiteSpace=wrap;html=1;align=center;strokeWidth=2;" vertex="1" parent="vawfzXd1jvmL-N3P_HfQ-47">
          <mxGeometry x="107.20588235294119" y="463.7254901960784" width="142.94117647058826" height="64.70588235294117" as="geometry" />
        </mxCell>
        <mxCell id="vawfzXd1jvmL-N3P_HfQ-24" value="" style="edgeStyle=orthogonalEdgeStyle;rounded=0;orthogonalLoop=1;jettySize=auto;html=1;" edge="1" parent="vawfzXd1jvmL-N3P_HfQ-47" source="vawfzXd1jvmL-N3P_HfQ-22" target="vawfzXd1jvmL-N3P_HfQ-23">
          <mxGeometry relative="1" as="geometry" />
        </mxCell>
        <mxCell id="vawfzXd1jvmL-N3P_HfQ-25" value="&lt;span style=&quot;font-size: 16px;&quot;&gt;&lt;b&gt;Shovill&lt;/b&gt;&lt;/span&gt;&lt;br style=&quot;border-color: var(--border-color);&quot;&gt;(de-novo draft assembly)" style="whiteSpace=wrap;html=1;" vertex="1" parent="vawfzXd1jvmL-N3P_HfQ-47">
          <mxGeometry x="428.82352941176475" y="75.49019607843137" width="142.94117647058826" height="64.70588235294117" as="geometry" />
        </mxCell>
        <mxCell id="vawfzXd1jvmL-N3P_HfQ-26" value="" style="edgeStyle=orthogonalEdgeStyle;rounded=0;orthogonalLoop=1;jettySize=auto;html=1;strokeWidth=3;entryX=0;entryY=0.5;entryDx=0;entryDy=0;" edge="1" parent="vawfzXd1jvmL-N3P_HfQ-47" source="vawfzXd1jvmL-N3P_HfQ-18" target="vawfzXd1jvmL-N3P_HfQ-25">
          <mxGeometry relative="1" as="geometry">
            <Array as="points">
              <mxPoint x="405.00000000000006" y="188.72549019607843" />
              <mxPoint x="405.00000000000006" y="107.84313725490196" />
            </Array>
          </mxGeometry>
        </mxCell>
        <mxCell id="vawfzXd1jvmL-N3P_HfQ-48" value="" style="edgeStyle=orthogonalEdgeStyle;rounded=0;orthogonalLoop=1;jettySize=auto;html=1;" edge="1" parent="vawfzXd1jvmL-N3P_HfQ-47" source="vawfzXd1jvmL-N3P_HfQ-30" target="vawfzXd1jvmL-N3P_HfQ-28">
          <mxGeometry relative="1" as="geometry" />
        </mxCell>
        <mxCell id="vawfzXd1jvmL-N3P_HfQ-31" value="&lt;span style=&quot;border-color: var(--border-color); color: rgb(0, 0, 0); font-family: Helvetica; font-style: normal; font-variant-ligatures: normal; font-variant-caps: normal; font-weight: 400; letter-spacing: normal; orphans: 2; text-align: center; text-indent: 0px; text-transform: none; widows: 2; word-spacing: 0px; -webkit-text-stroke-width: 0px; text-decoration-thickness: initial; text-decoration-style: initial; text-decoration-color: initial; background-color: rgb(251, 251, 251); font-size: 16px;&quot;&gt;&lt;b style=&quot;border-color: var(--border-color);&quot;&gt;CheckM&lt;/b&gt;&lt;/span&gt;&lt;br style=&quot;border-color: var(--border-color); color: rgb(0, 0, 0); font-family: Helvetica; font-size: 12px; font-style: normal; font-variant-ligatures: normal; font-variant-caps: normal; font-weight: 400; letter-spacing: normal; orphans: 2; text-align: center; text-indent: 0px; text-transform: none; widows: 2; word-spacing: 0px; -webkit-text-stroke-width: 0px; text-decoration-thickness: initial; text-decoration-style: initial; text-decoration-color: initial; background-color: rgb(251, 251, 251);&quot;&gt;&lt;span style=&quot;border-color: var(--border-color); color: rgb(0, 0, 0); font-family: Helvetica; font-size: 12px; font-style: normal; font-variant-ligatures: normal; font-variant-caps: normal; font-weight: 400; letter-spacing: normal; orphans: 2; text-align: center; text-indent: 0px; text-transform: none; widows: 2; word-spacing: 0px; -webkit-text-stroke-width: 0px; text-decoration-thickness: initial; text-decoration-style: initial; text-decoration-color: initial; background-color: rgb(251, 251, 251); float: none; display: inline !important;&quot;&gt;(contamination check)&lt;/span&gt;" style="whiteSpace=wrap;html=1;" vertex="1" parent="vawfzXd1jvmL-N3P_HfQ-47">
          <mxGeometry x="428.82352941176475" y="366.66666666666663" width="142.94117647058826" height="64.70588235294117" as="geometry" />
        </mxCell>
        <mxCell id="vawfzXd1jvmL-N3P_HfQ-34" value="&lt;b style=&quot;border-color: var(--border-color);&quot;&gt;BAKTA&lt;/b&gt;&lt;br style=&quot;border-color: var(--border-color);&quot;&gt;(de-novo draft assembly)" style="whiteSpace=wrap;html=1;" vertex="1" parent="vawfzXd1jvmL-N3P_HfQ-47">
          <mxGeometry x="643.2352941176471" y="75.49019607843137" width="142.94117647058826" height="64.70588235294117" as="geometry" />
        </mxCell>
        <mxCell id="vawfzXd1jvmL-N3P_HfQ-44" style="edgeStyle=orthogonalEdgeStyle;rounded=0;orthogonalLoop=1;jettySize=auto;html=1;exitX=1;exitY=0.75;exitDx=0;exitDy=0;strokeWidth=3;entryX=0;entryY=0.5;entryDx=0;entryDy=0;" edge="1" parent="vawfzXd1jvmL-N3P_HfQ-47" source="vawfzXd1jvmL-N3P_HfQ-30" target="vawfzXd1jvmL-N3P_HfQ-34">
          <mxGeometry relative="1" as="geometry">
            <mxPoint x="714.7058823529413" y="140.19607843137254" as="targetPoint" />
          </mxGeometry>
        </mxCell>
        <mxCell id="vawfzXd1jvmL-N3P_HfQ-36" value="&lt;b&gt;&lt;font style=&quot;font-size: 16px;&quot;&gt;Snippy&lt;/font&gt;&lt;/b&gt;&lt;br&gt;(call SNVs in assembly)" style="whiteSpace=wrap;html=1;" vertex="1" parent="vawfzXd1jvmL-N3P_HfQ-47">
          <mxGeometry x="643.2352941176471" y="323.52941176470586" width="142.94117647058826" height="64.70588235294117" as="geometry" />
        </mxCell>
        <mxCell id="vawfzXd1jvmL-N3P_HfQ-38" style="edgeStyle=orthogonalEdgeStyle;rounded=0;orthogonalLoop=1;jettySize=auto;html=1;exitX=1;exitY=0.75;exitDx=0;exitDy=0;entryX=0.5;entryY=0;entryDx=0;entryDy=0;strokeWidth=3;" edge="1" parent="vawfzXd1jvmL-N3P_HfQ-47" source="vawfzXd1jvmL-N3P_HfQ-30" target="vawfzXd1jvmL-N3P_HfQ-36">
          <mxGeometry relative="1" as="geometry">
            <Array as="points">
              <mxPoint x="607.5" y="184.41176470588235" />
              <mxPoint x="607.5" y="291.1764705882353" />
              <mxPoint x="714.7058823529413" y="291.1764705882353" />
            </Array>
          </mxGeometry>
        </mxCell>
        <mxCell id="vawfzXd1jvmL-N3P_HfQ-39" value="&lt;b&gt;&lt;font style=&quot;font-size: 16px;&quot;&gt;FastTree&lt;/font&gt;&lt;/b&gt;&lt;br&gt;(build phylogenetic tree)" style="whiteSpace=wrap;html=1;" vertex="1" parent="vawfzXd1jvmL-N3P_HfQ-47">
          <mxGeometry x="643.2352941176471" y="431.37254901960785" width="142.94117647058826" height="64.70588235294117" as="geometry" />
        </mxCell>
        <mxCell id="vawfzXd1jvmL-N3P_HfQ-40" value="" style="edgeStyle=orthogonalEdgeStyle;rounded=0;orthogonalLoop=1;jettySize=auto;html=1;" edge="1" parent="vawfzXd1jvmL-N3P_HfQ-47" source="vawfzXd1jvmL-N3P_HfQ-36" target="vawfzXd1jvmL-N3P_HfQ-39">
          <mxGeometry relative="1" as="geometry" />
        </mxCell>
        <mxCell id="vawfzXd1jvmL-N3P_HfQ-28" value="&lt;span style=&quot;border-color: var(--border-color); color: rgb(0, 0, 0); font-family: Helvetica; font-style: normal; font-variant-ligatures: normal; font-variant-caps: normal; font-weight: 400; letter-spacing: normal; orphans: 2; text-align: center; text-indent: 0px; text-transform: none; widows: 2; word-spacing: 0px; -webkit-text-stroke-width: 0px; background-color: rgb(251, 251, 251); text-decoration-thickness: initial; text-decoration-style: initial; text-decoration-color: initial; font-size: 16px;&quot;&gt;&lt;b style=&quot;border-color: var(--border-color);&quot;&gt;QUAST&lt;/b&gt;&lt;/span&gt;&lt;br style=&quot;border-color: var(--border-color); color: rgb(0, 0, 0); font-family: Helvetica; font-size: 12px; font-style: normal; font-variant-ligatures: normal; font-variant-caps: normal; font-weight: 400; letter-spacing: normal; orphans: 2; text-align: center; text-indent: 0px; text-transform: none; widows: 2; word-spacing: 0px; -webkit-text-stroke-width: 0px; background-color: rgb(251, 251, 251); text-decoration-thickness: initial; text-decoration-style: initial; text-decoration-color: initial;&quot;&gt;&lt;span style=&quot;color: rgb(0, 0, 0); font-family: Helvetica; font-size: 12px; font-style: normal; font-variant-ligatures: normal; font-variant-caps: normal; font-weight: 400; letter-spacing: normal; orphans: 2; text-align: center; text-indent: 0px; text-transform: none; widows: 2; word-spacing: 0px; -webkit-text-stroke-width: 0px; background-color: rgb(251, 251, 251); text-decoration-thickness: initial; text-decoration-style: initial; text-decoration-color: initial; float: none; display: inline !important;&quot;&gt;(assembly statistics)&lt;/span&gt;" style="whiteSpace=wrap;html=1;" vertex="1" parent="vawfzXd1jvmL-N3P_HfQ-47">
          <mxGeometry x="428.82352941176475" y="264.2156862745098" width="142.94117647058826" height="64.70588235294117" as="geometry" />
        </mxCell>
        <mxCell id="vawfzXd1jvmL-N3P_HfQ-29" value="" style="edgeStyle=orthogonalEdgeStyle;rounded=0;orthogonalLoop=1;jettySize=auto;html=1;" edge="1" parent="vawfzXd1jvmL-N3P_HfQ-47" source="vawfzXd1jvmL-N3P_HfQ-25" target="vawfzXd1jvmL-N3P_HfQ-28">
          <mxGeometry relative="1" as="geometry">
            <Array as="points">
              <mxPoint x="500.2941176470589" y="107.84313725490196" />
            </Array>
          </mxGeometry>
        </mxCell>
        <mxCell id="vawfzXd1jvmL-N3P_HfQ-32" value="" style="edgeStyle=orthogonalEdgeStyle;rounded=0;orthogonalLoop=1;jettySize=auto;html=1;" edge="1" parent="vawfzXd1jvmL-N3P_HfQ-47" source="vawfzXd1jvmL-N3P_HfQ-28" target="vawfzXd1jvmL-N3P_HfQ-31">
          <mxGeometry relative="1" as="geometry">
            <Array as="points">
              <mxPoint x="500.2941176470589" y="345.09803921568624" />
              <mxPoint x="500.2941176470589" y="345.09803921568624" />
            </Array>
          </mxGeometry>
        </mxCell>
        <mxCell id="vawfzXd1jvmL-N3P_HfQ-45" value="&lt;b style=&quot;border-color: var(--border-color); color: rgb(0, 0, 0); font-family: Helvetica; font-size: 12px; font-style: normal; font-variant-ligatures: normal; font-variant-caps: normal; letter-spacing: normal; orphans: 2; text-align: center; text-indent: 0px; text-transform: none; widows: 2; word-spacing: 0px; -webkit-text-stroke-width: 0px; background-color: rgb(251, 251, 251); text-decoration-thickness: initial; text-decoration-style: initial; text-decoration-color: initial;&quot;&gt;Circos&lt;/b&gt;&lt;br style=&quot;border-color: var(--border-color); color: rgb(0, 0, 0); font-family: Helvetica; font-size: 12px; font-style: normal; font-variant-ligatures: normal; font-variant-caps: normal; font-weight: 400; letter-spacing: normal; orphans: 2; text-align: center; text-indent: 0px; text-transform: none; widows: 2; word-spacing: 0px; -webkit-text-stroke-width: 0px; background-color: rgb(251, 251, 251); text-decoration-thickness: initial; text-decoration-style: initial; text-decoration-color: initial;&quot;&gt;&lt;span style=&quot;color: rgb(0, 0, 0); font-family: Helvetica; font-size: 12px; font-style: normal; font-variant-ligatures: normal; font-variant-caps: normal; font-weight: 400; letter-spacing: normal; orphans: 2; text-align: center; text-indent: 0px; text-transform: none; widows: 2; word-spacing: 0px; -webkit-text-stroke-width: 0px; background-color: rgb(251, 251, 251); text-decoration-thickness: initial; text-decoration-style: initial; text-decoration-color: initial; float: none; display: inline !important;&quot;&gt;(visualization)&lt;/span&gt;" style="whiteSpace=wrap;html=1;" vertex="1" parent="vawfzXd1jvmL-N3P_HfQ-47">
          <mxGeometry x="643.2352941176471" y="161.76470588235293" width="142.94117647058826" height="53.92156862745098" as="geometry" />
        </mxCell>
        <mxCell id="vawfzXd1jvmL-N3P_HfQ-46" value="" style="edgeStyle=orthogonalEdgeStyle;rounded=0;orthogonalLoop=1;jettySize=auto;html=1;" edge="1" parent="vawfzXd1jvmL-N3P_HfQ-47" source="vawfzXd1jvmL-N3P_HfQ-34" target="vawfzXd1jvmL-N3P_HfQ-45">
          <mxGeometry relative="1" as="geometry" />
        </mxCell>
        <mxCell id="vawfzXd1jvmL-N3P_HfQ-30" value="draft genomes" style="shape=parallelogram;perimeter=parallelogramPerimeter;whiteSpace=wrap;html=1;fixedSize=1;fillColor=#dae8fc;strokeColor=#6c8ebf;" vertex="1" parent="vawfzXd1jvmL-N3P_HfQ-47">
          <mxGeometry x="428.82352941176475" y="161.76470588235293" width="142.94117647058826" height="32.35294117647059" as="geometry" />
        </mxCell>
      </root>
    </mxGraphModel>
  </diagram>
</mxfile>
